<svg version="1.2" xmlns="http://www.w3.org/2000/svg" viewBox="0 0 256 256" width="256" height="256">
	<title>compose-svg</title>
	<defs>
		<linearGradient id="g1" x2="1" gradientUnits="userSpaceOnUse" gradientTransform="matrix(160.093,160.106,-170.432,170.418,46.617,49.519)">
			<stop offset="0" stop-color="#000000"/>
			<stop offset="1" stop-color="#ffffff"/>
		</linearGradient>
		<linearGradient id="g2" x2="1" gradientUnits="userSpaceOnUse" gradientTransform="matrix(-160.093,-160.091,175.416,-175.417,213.065,203.254)">
			<stop offset="0" stop-color="#000000"/>
			<stop offset="1" stop-color="#ffffff"/>
		</linearGradient>
	</defs>
	<style>
		.s0 { fill: #242938 } 
		.s1 { fill: url(#g1) } 
		.s2 { fill: url(#g2) } 
	</style>
	<path class="s0" d="m60 0h136c33.1 0 60 26.9 60 60v136c0 33.1-26.9 60-60 60h-136c-33.1 0-60-26.9-60-60v-136c0-33.1 26.9-60 60-60z"/>
	<path fill-rule="evenodd" class="s1" d="m128.4 183c50.3 68.6 99.5-19.1 99.4-71.8 0-62.4-63.2-97.2-99.4-97.2-58.1 0-113.4 48-113.4 113.7 0 73 63.4 113.4 113.4 113.4-11.3-1.6-49-9.7-49.5-96.5-0.4-58.7 19.1-82.2 49.4-71.9 0.7 0.3 33.4 13.2 33.4 55.3 0 42-33.3 55-33.3 55z"/>
	<path fill-rule="evenodd" class="s2" d="m127.5 73.6c-33.2-11.5-73.9 15.9-73.9 70.7 0 89.6 66.3 97.7 74.4 97.7 58.1 0 113.4-48 113.4-113.7 0-73-63.4-113.4-113.4-113.4 13.8-1.9 74.6 15 74.6 98 0 54.2-45.4 83.7-74.9 71.1-0.7-0.2-33.4-13.2-33.4-55.3 0-42 33.2-55.2 33.2-55.1z"/>
</svg>